<svg width="64" height="64" viewBox="0 0 64 64" fill="none" xmlns="http://www.w3.org/2000/svg">
<g clip-path="url(#clip0_722_519)">
<path d="M32 64C49.6731 64 64 49.6731 64 32C64 14.3269 49.6731 0 32 0C14.3269 0 0 14.3269 0 32C0 49.6731 14.3269 64 32 64Z" fill="#FFA800"/>
<path d="M39.111 14.2222L21.3333 53.3333L31.9999 63.9999C47.4606 63.9999 60.3601 53.0357 63.3476 38.4588L39.111 14.2222Z" fill="#CD8B55"/>
<path d="M39.1111 14.2222H24.8889V17.7777H39.1111V14.2222Z" fill="#FFCD02"/>
<path d="M39.1111 14.2222H31.9282V17.7777H39.1111V14.2222Z" fill="#EAC00F"/>
<path d="M21.3333 53.3334H42.6666V21.064L39.111 20.3098H24.8888L21.3333 21.064V53.3334Z" fill="#FFCD02"/>
<path d="M42.6666 21.064L39.1111 20.3098H31.9282V53.3334H42.6666V21.064Z" fill="#EAC00F"/>
<path d="M27.5108 46.2222H36.4895C37.9374 46.2222 39.1114 45.0484 39.1114 43.6003V34.6216C39.1114 33.1737 37.9376 31.9998 36.4895 31.9998H27.5108C26.0629 31.9998 24.8892 33.1735 24.8892 34.6216V43.6003C24.8889 45.0484 26.0627 46.2222 27.5108 46.2222Z" fill="#DC2626"/>
<path d="M36.4895 32H31.9282V46.2222H36.4895C37.9373 46.2222 39.1113 45.0485 39.1113 43.6004V34.6216C39.1111 33.1738 37.9373 32 36.4895 32Z" fill="#B91C1C"/>
<path d="M21.3333 21.0639H42.6666L39.111 17.5083H24.8888L21.3333 21.0639Z" fill="#EEECF0"/>
<path d="M39.1111 17.5083H31.9282V21.0639H42.6666L39.1111 17.5083Z" fill="#DDD9E2"/>
<path d="M31.7845 19.7172C31.5915 19.7172 31.3986 19.6435 31.2512 19.4963L24.361 12.6061H17.5623C17.1458 12.6061 16.8081 12.2684 16.8081 11.8519C16.8081 11.4353 17.1458 11.0977 17.5623 11.0977H24.9859L32.3177 18.4296C32.6122 18.724 32.6122 19.2017 32.3177 19.4961C32.1705 19.6435 31.9776 19.7172 31.7845 19.7172Z" fill="#7F1D1D"/>
</g>
<defs>
<clipPath id="clip0_722_519">
<rect width="64" height="64" fill="white"/>
</clipPath>
</defs>
</svg>
