<svg width="1001" height="168" viewBox="0 0 1001 168" fill="none" xmlns="http://www.w3.org/2000/svg">
<path d="M53 38.9999C80.062 38.9999 102 60.9379 102 87.9999C102 90.622 101.794 93.196 101.397 95.7066L79.0101 73.3265C71.5896 80.747 67 90.9982 67 102.321C67 113.083 71.1453 122.876 77.9262 130.191C70.626 134.518 62.1029 137 53 137C25.938 137 4 115.062 4 87.9999C4 60.9379 25.938 38.9999 53 38.9999ZM53 38.9999L34.8816 35.3762C25.0657 33.413 18 24.7943 18 14.784V10.9999L36.1184 14.6236C45.9343 16.5867 53 25.2055 53 35.2158V45.9999C53 37.4198 57.8477 29.576 65.522 25.7389L67 24.9999M87.9316 82.9214L87.5715 82.5612C84.896 79.8858 82.0423 77.032 79.0101 73.9999C71.5896 81.4203 67 91.6716 67 102.995C67 105.733 67.2684 108.408 67.7802 110.996C68.3077 113.663 69.0938 116.237 70.1112 118.69C72.1895 123.702 75.2331 128.213 79.0101 131.99C82.7871 135.767 87.2976 138.81 92.3095 140.889C94.7631 141.906 97.3369 142.692 100.004 143.22C102.592 143.732 105.267 144 108.005 144C119.328 144 129.58 139.41 137 131.99C133.968 128.958 131.114 126.104 128.439 123.428L128.078 123.068M87.9316 82.9214C82.7944 88.0586 79.6169 95.1557 79.6169 102.995M87.9316 82.9214L89.5446 84.5344C90.1912 85.1809 90.8266 85.8164 91.4508 86.4406L95.0627 90.0524C95.6423 90.6321 96.2109 91.2006 96.7683 91.758L104.293 99.2827C105.631 100.62 106.868 101.858 108.005 102.995M79.6169 102.995C79.6169 118.673 92.3267 131.383 108.005 131.383M79.6169 102.995C79.6169 104.89 79.8027 106.742 80.1571 108.534L108.005 102.995M108.005 131.383C115.844 131.383 122.941 128.205 128.078 123.068M108.005 131.383C104.155 131.383 100.485 130.617 97.1372 129.228L108.005 102.995M128.078 123.068L126.465 121.455C125.819 120.809 125.184 120.173 124.559 119.549L120.947 115.937C120.368 115.358 119.799 114.789 119.242 114.232L111.717 106.707C110.379 105.369 109.142 104.132 108.005 102.995" stroke="#FFA800" stroke-opacity="0.74" stroke-width="7" stroke-linecap="round"/>
<path d="M203.47 133.502C211.15 133.955 219.07 134.03 227.23 133.728V134.181C227.47 139.012 227.53 144.07 227.41 149.354C227.29 154.488 226.75 159.319 225.79 163.848C213.55 163.697 201.07 163.924 188.35 164.528C175.75 164.98 163.63 164.603 151.99 163.395C151.99 150.26 151.87 137.276 151.63 124.443C151.39 111.459 151.21 98.5504 151.09 85.7174C150.97 72.8843 150.97 60.0512 151.09 47.2182C151.21 34.3851 151.57 21.4765 152.17 8.49248C156.85 8.19052 161.89 7.96406 167.29 7.81308C172.81 7.51112 178.33 7.28466 183.85 7.13368C189.37 6.9827 194.71 6.83173 199.87 6.68075C205.03 6.52977 209.59 6.45428 213.55 6.45428C217.51 6.45428 220.69 6.52977 223.09 6.68075C225.49 6.83173 226.69 6.9827 226.69 7.13368C227.29 12.4179 227.41 17.7776 227.05 23.2128C226.81 28.6479 226.69 34.0076 226.69 39.2918V39.5183C222.85 40.5752 218.95 41.2546 214.99 41.5565C211.15 41.7075 207.25 41.783 203.29 41.783C199.33 41.632 195.37 41.5565 191.41 41.5565C187.45 41.5565 183.49 41.783 179.53 42.2359H178.99L178.81 42.4624C178.93 46.8407 178.75 51.37 178.27 56.0503C177.91 60.5796 178.15 64.8825 178.99 68.9589L179.17 69.1853C182.77 69.4873 186.43 69.6383 190.15 69.6383C193.87 69.6383 197.59 69.7138 201.31 69.8647V70.0912C201.91 75.2244 202.09 80.3577 201.85 85.4909C201.61 90.6241 201.55 95.9838 201.67 101.57C199.87 102.174 197.83 102.551 195.55 102.702C193.27 102.702 191.05 102.702 188.89 102.702C186.85 102.702 184.99 102.778 183.31 102.929C181.63 103.08 180.49 103.457 179.89 104.061C179.29 108.439 179.05 113.346 179.17 118.781C179.41 124.217 179.65 128.746 179.89 132.369L180.07 132.596C187.99 132.596 195.79 132.898 203.47 133.502ZM313.35 49.7093C313.83 63.7502 313.77 78.0175 313.17 92.5113L312.63 164.754C310.83 164.452 308.85 164.301 306.69 164.301C304.53 164.301 302.37 164.301 300.21 164.301C298.05 164.301 295.95 164.377 293.91 164.528C291.99 164.528 290.31 164.528 288.87 164.528C288.63 158.035 288.45 151.015 288.33 143.466C288.33 135.917 288.27 128.217 288.15 120.367C288.15 112.516 287.97 104.816 287.61 97.2671C287.37 89.7183 286.95 82.7733 286.35 76.4323C285.51 78.093 284.55 80.7351 283.47 84.3586C282.39 87.831 281.31 91.4545 280.23 95.2289C279.15 99.0034 278.13 102.325 277.17 105.193C276.21 108.062 275.49 109.496 275.01 109.496C274.41 109.496 273.69 108.741 272.85 107.232C272.13 105.571 271.35 103.533 270.51 101.117C269.79 98.7014 269.01 96.1348 268.17 93.4172C267.33 90.6996 266.61 88.2085 266.01 85.9438C265.41 83.6792 264.87 81.792 264.39 80.2822C264.03 78.7724 263.85 78.0175 263.85 78.0175C262.89 92.2094 262.53 106.552 262.77 121.046C263.13 135.54 263.67 149.807 264.39 163.848C260.55 164.603 256.35 164.905 251.79 164.754C247.23 164.603 243.03 164.528 239.19 164.528C238.95 164.528 238.77 164.301 238.65 163.848C238.53 163.244 238.41 161.81 238.29 159.545C238.17 157.281 238.05 153.884 237.93 149.354C237.93 144.674 237.93 138.559 237.93 131.011C237.93 123.462 237.93 114.101 237.93 102.929C238.05 91.7565 238.11 78.4705 238.11 63.0708C238.23 47.6711 238.35 29.7048 238.47 9.17187C240.03 8.56797 241.83 8.19052 243.87 8.03955C245.91 7.88857 248.01 7.88857 250.17 8.03955C252.33 8.03955 254.49 8.11503 256.65 8.26601C258.81 8.26601 260.91 8.19052 262.95 8.03955H263.13C264.21 9.54932 265.29 11.8895 266.37 15.06C267.45 18.0795 268.47 21.3255 269.43 24.798C270.39 28.2705 271.29 31.592 272.13 34.7625C273.09 37.933 274.05 40.4242 275.01 42.2359C275.37 42.6888 275.73 42.9153 276.09 42.9153C276.45 43.0663 276.99 41.632 277.71 38.6124C278.55 35.5929 279.39 32.1204 280.23 28.195C281.19 24.1186 282.21 20.1177 283.29 16.1923C284.49 12.2669 285.63 9.39834 286.71 7.58661C287.55 7.73759 289.05 7.73759 291.21 7.58661C293.49 7.43564 295.89 7.28466 298.41 7.13368C301.05 6.9827 303.69 6.90722 306.33 6.90722C309.09 6.75624 311.43 6.68075 313.35 6.68075C312.87 21.1746 312.87 35.5174 313.35 49.7093ZM392.006 16.6453C395.486 20.5707 397.946 25.1755 399.386 30.4597C400.226 32.7243 400.826 35.0645 401.186 37.4801C401.666 39.7448 402.026 42.0849 402.266 44.5006C402.506 48.275 402.626 52.0494 402.626 55.8239C402.746 59.4473 402.746 63.1463 402.626 66.9207C402.266 74.9225 402.146 82.6978 402.266 90.2467C402.386 97.7955 402.206 105.495 401.726 113.346L401.186 120.82C400.946 126.104 400.286 131.463 399.206 136.899C398.126 142.183 396.506 147.014 394.346 151.392C392.306 155.016 389.606 157.96 386.246 160.225C383.006 162.338 379.526 163.999 375.806 165.207C372.446 166.415 369.026 167.17 365.546 167.472C362.186 167.774 358.766 167.774 355.286 167.472C352.766 167.17 350.306 166.717 347.906 166.113C345.626 165.66 343.406 164.829 341.246 163.622C339.206 162.414 337.346 160.904 335.666 159.092C333.986 157.13 332.606 154.639 331.526 151.619C329.846 147.845 328.706 143.844 328.106 139.616C327.626 135.238 327.326 130.86 327.206 126.481C326.846 114.705 326.426 102.929 325.946 91.1525C325.586 79.2253 325.706 67.2981 326.306 55.3709C326.426 48.5769 327.086 41.783 328.286 34.989C329.606 28.044 332.126 21.9295 335.846 16.6453C337.046 15.1355 338.426 13.7767 339.986 12.5689C343.946 10.1532 348.206 8.41699 352.766 7.36015C357.446 6.15233 362.066 5.6994 366.626 6.00135C371.306 6.30331 375.806 7.36015 380.126 9.17187C384.566 10.8326 388.526 13.3238 392.006 16.6453ZM380.126 96.5877V85.7174L379.766 70.3177C379.766 70.1667 379.646 68.6569 379.406 65.7884C379.286 62.7688 379.166 59.9757 379.046 57.4091C378.806 53.1818 377.846 49.3318 376.166 45.8594C374.606 42.3869 372.446 39.8203 369.686 38.1595C367.286 36.9517 364.826 36.7252 362.306 37.4801C359.786 38.235 357.566 39.5183 355.646 41.33C351.446 45.4064 348.626 50.6151 347.186 56.9562C346.226 62.6933 345.626 68.7324 345.386 75.0735C345.266 81.4145 345.326 87.7556 345.566 94.0966C346.166 99.3808 346.586 104.816 346.826 110.402C347.066 115.837 347.786 121.046 348.986 126.028C350.186 129.048 351.926 131.388 354.206 133.049C356.486 134.709 358.946 135.691 361.586 135.993C364.226 136.144 366.866 135.691 369.506 134.634C372.146 133.426 374.366 131.539 376.166 128.972C377.246 127.161 378.026 125.726 378.506 124.669C378.986 123.462 379.286 122.178 379.406 120.82C379.526 119.461 379.526 117.876 379.406 116.064C379.406 114.101 379.526 111.534 379.766 108.364C379.886 105.344 379.946 102.702 379.946 100.438C380.066 98.173 380.126 96.8897 380.126 96.5877ZM493.957 145.957C496.597 151.694 498.817 157.658 500.617 163.848H500.797C496.597 163.848 491.917 164.075 486.757 164.528C481.597 164.829 476.317 164.754 470.917 164.301H470.737C469.537 160.829 468.037 156.677 466.237 151.845C464.437 147.014 462.457 141.956 460.297 136.672C458.137 131.388 455.797 126.179 453.277 121.046C450.757 115.913 448.238 111.383 445.718 107.458L445.358 106.779C444.998 110.251 444.818 114.554 444.818 119.687C444.818 124.669 444.878 129.878 444.998 135.313C445.238 140.598 445.478 145.655 445.718 150.487C445.958 155.318 446.138 159.168 446.258 162.036C444.218 163.093 441.518 163.773 438.158 164.075C434.918 164.377 431.678 164.528 428.438 164.528C425.198 164.678 422.258 164.678 419.618 164.528C417.098 164.377 415.538 164.377 414.938 164.528C415.178 164.528 415.358 162.489 415.478 158.413C415.598 154.186 415.658 148.675 415.658 141.881C415.658 135.087 415.658 127.312 415.658 118.555C415.658 109.647 415.598 100.513 415.478 91.1525C415.478 81.641 415.358 72.2804 415.118 63.0708C414.998 53.7102 414.878 45.18 414.758 37.4801C414.638 29.6293 414.458 22.9863 414.218 17.5511C414.098 11.965 413.918 8.19052 413.678 6.22782C420.398 5.02 427.778 3.88767 435.818 2.83083C443.858 1.77398 452.257 1.84947 461.017 3.05729C468.097 3.51023 474.457 6.07684 480.097 10.7571C485.737 15.4374 490.117 21.2501 493.237 28.195C496.357 35.14 497.977 42.8398 498.097 51.2945C498.337 59.5983 496.597 67.6756 492.877 75.5264C490.597 80.9616 487.537 85.4909 483.697 89.1144C479.977 92.7378 475.237 94.776 469.477 95.2289H468.757H468.577V95.4554C471.097 101.042 473.857 106.628 476.857 112.214C479.857 117.649 482.797 123.16 485.677 128.746C488.557 134.332 491.317 140.069 493.957 145.957ZM452.377 34.5361C448.298 34.687 444.158 35.8194 439.958 37.9331C440.078 39.8958 440.138 42.1604 440.138 44.727C440.258 47.1427 440.318 49.6338 440.318 52.2004C440.318 54.767 440.318 57.2581 440.318 59.6738C440.438 62.0894 440.618 64.1276 440.858 65.7884H441.038C443.798 66.0903 446.798 66.3168 450.037 66.4678C453.277 66.6187 456.337 66.3923 459.217 65.7884C461.497 65.1844 463.237 63.7502 464.437 61.4855C465.757 59.0699 466.537 56.5033 466.777 53.7857C467.017 50.9171 466.777 48.124 466.057 45.4064C465.337 42.5379 464.137 40.2732 462.457 38.6124C459.817 35.5929 456.457 34.2341 452.377 34.5361ZM579.022 7.36015C580.222 7.36015 581.182 7.43564 581.902 7.58661V7.81308C578.542 21.401 574.582 34.687 570.022 47.6711C565.462 60.6551 560.722 73.6392 555.802 86.6232C550.882 99.4563 546.082 112.365 541.402 125.349C536.722 138.182 532.582 151.242 528.982 164.528C528.262 164.377 527.542 164.301 526.822 164.301C526.102 164.301 525.322 164.301 524.482 164.301C521.962 164.301 519.202 164.377 516.202 164.528C513.202 164.829 510.322 164.98 507.562 164.98C506.842 164.98 506.122 164.98 505.402 164.98C504.682 164.98 503.962 164.905 503.242 164.754H502.882C506.002 152.525 509.662 139.767 513.862 126.481C518.062 113.044 522.262 99.6828 526.462 86.3968V85.9438C525.142 79.3008 523.462 72.7333 521.422 66.2413C519.382 59.5983 517.222 53.0308 514.942 46.5388C512.782 40.0467 510.682 33.5547 508.642 27.0627C506.602 20.5707 504.982 14.1541 503.782 7.81308C506.182 7.81308 508.702 7.58661 511.342 7.13368C513.982 6.68075 516.622 6.45428 519.262 6.45428C520.702 6.45428 522.142 6.60526 523.582 6.90722C525.022 7.05819 526.402 7.51112 527.722 8.26601C528.322 11.5875 529.162 15.5129 530.242 20.0422C531.442 24.5716 532.642 29.1764 533.842 33.8567C535.162 38.537 536.482 42.9908 537.802 47.2182C539.242 51.4455 540.502 54.9935 541.582 57.8621C542.782 55.1445 543.982 51.672 545.182 47.4446C546.502 43.0663 547.762 38.537 548.962 33.8567C550.282 29.1764 551.542 24.5716 552.742 20.0422C553.942 15.5129 555.082 11.7385 556.162 8.71894C558.322 8.11503 561.202 7.73759 564.802 7.58661C568.522 7.28466 571.942 7.13368 575.062 7.13368C576.502 7.13368 577.822 7.20917 579.022 7.36015ZM658.348 5.32195V3.73669L684.628 3.28376C684.388 17.4756 684.508 31.8185 684.988 46.3123C685.468 60.8061 685.588 75.3754 685.348 90.0202C685.108 96.2103 684.928 102.929 684.808 110.176C684.688 117.272 684.028 124.141 682.828 130.784C681.748 137.427 679.768 143.466 676.888 148.901C674.128 154.337 669.988 158.337 664.468 160.904C659.428 164.075 653.908 165.811 647.908 166.113C641.908 166.566 636.208 166.037 630.808 164.528C625.888 162.716 621.928 159.394 618.928 154.563C615.928 149.732 613.648 144.221 612.088 138.031C610.528 131.69 609.508 125.122 609.028 118.328C608.668 111.384 608.608 105.042 608.848 99.3053C610.408 98.8524 612.328 98.5504 614.608 98.3995C617.008 98.2485 619.468 98.173 621.988 98.173C624.508 98.173 627.028 98.324 629.548 98.6259C632.188 98.9279 634.588 99.3053 636.748 99.7583V99.9847V101.117C636.868 103.382 637.048 106.024 637.288 109.043C637.648 111.912 638.248 114.705 639.088 117.423C639.928 119.989 641.008 122.178 642.328 123.99C643.648 125.802 645.388 126.783 647.548 126.934C649.348 127.387 650.908 127.236 652.228 126.481C653.548 125.726 654.628 124.594 655.468 123.084C656.428 121.423 657.148 119.612 657.628 117.649C658.108 115.535 658.408 113.346 658.528 111.082C658.288 94.1721 658.048 76.8097 657.808 58.9944C657.688 41.1791 657.868 23.2883 658.348 5.32195ZM770.29 10.9836C772.57 11.2856 774.43 11.965 775.87 13.0218C776.59 32.3469 776.83 51.8984 776.59 71.6765C776.35 91.3035 775.39 110.855 773.71 130.331C772.75 140.296 769.75 148.75 764.71 155.695C759.67 162.64 752.83 166.641 744.19 167.698C739.15 168.302 733.93 168 728.53 166.792C723.13 165.735 718.21 163.773 713.77 160.904C709.45 157.885 705.79 153.959 702.79 149.128C699.91 144.146 698.35 138.182 698.11 131.237C698.11 111.308 698.29 91.228 698.65 70.9971C699.01 50.7661 699.07 30.6861 698.83 10.7571L698.65 10.5307H698.83C700.63 10.5307 702.61 10.4552 704.77 10.3042C707.05 10.1532 709.33 10.0777 711.61 10.0777C713.89 10.0777 716.11 10.2287 718.27 10.5307C720.43 10.6816 722.41 11.0591 724.21 11.663V11.8895C722.89 48.426 723.43 85.4909 725.83 123.084C726.67 126.708 728.17 129.35 730.33 131.011C732.61 132.671 734.95 133.426 737.35 133.275C739.75 133.124 741.97 132.067 744.01 130.105C746.05 128.142 747.37 125.424 747.97 121.952C748.57 103.835 748.87 85.4154 748.87 66.6942C748.99 47.973 749.23 29.8558 749.59 12.3424C751.15 12.1914 753.13 11.965 755.53 11.663C758.05 11.2101 760.57 10.9081 763.09 10.7571C765.61 10.6062 768.01 10.6816 770.29 10.9836ZM805.549 5.32195C808.429 5.47293 812.569 5.47293 817.969 5.32195H822.289V6.22782C822.289 19.2119 822.109 32.2714 821.749 45.4064C821.509 58.5414 821.269 71.752 821.029 85.038C820.909 98.173 820.909 111.308 821.029 124.443C821.149 137.578 821.509 150.562 822.109 163.395C821.149 164.603 819.109 165.282 815.989 165.433C812.989 165.735 809.689 165.811 806.086 165.66C802.609 165.509 799.249 165.282 796.009 164.98C792.769 164.829 790.549 164.98 789.349 165.433C790.189 151.845 790.549 138.182 790.429 124.443C790.309 110.704 790.069 97.1161 789.709 83.6792C789.469 70.0912 789.289 56.7297 789.169 43.5947C789.169 30.3087 789.709 17.3246 790.789 4.64256V4.18962C791.389 4.03865 792.529 4.11414 794.206 4.41609C796.009 4.56707 797.329 4.64256 798.169 4.64256C800.329 4.79353 802.789 5.02 805.549 5.32195ZM867.784 39.2918C866.104 39.7448 864.784 40.5752 863.824 41.783C863.584 42.0849 863.344 42.6133 863.104 43.3682C862.984 43.9721 862.864 44.4251 862.744 44.727C862.504 45.18 862.264 47.8221 862.024 52.6533C861.904 57.4846 861.784 63.2217 861.664 69.8647C861.544 76.5077 861.484 83.4527 861.484 90.6996C861.484 97.7955 861.664 103.986 862.024 109.27C862.384 113.648 863.284 117.951 864.724 122.178C866.284 126.255 868.804 128.897 872.284 130.105C874.924 130.407 877.384 129.954 879.664 128.746C882.064 127.387 883.864 125.198 885.064 122.178C886.384 118.706 886.924 115.082 886.684 111.308C886.564 107.383 886.804 103.533 887.404 99.7583C889.084 100.06 890.944 100.136 892.984 99.9847C895.144 99.8337 897.304 99.7583 899.464 99.7583C901.624 99.7583 903.724 99.8337 905.764 99.9847C907.924 100.136 909.844 100.513 911.524 101.117C913.564 108.968 914.104 116.819 913.144 124.669C912.184 132.369 910.084 139.314 906.844 145.504C903.604 151.694 899.344 156.828 894.064 160.904C888.904 164.829 883.024 166.868 876.424 167.019C872.104 167.774 867.664 167.774 863.104 167.019C858.544 166.415 854.284 164.98 850.324 162.716C846.364 160.3 843.004 156.979 840.244 152.751C837.604 148.524 836.044 143.24 835.564 136.899C835.324 131.463 835.144 125.802 835.024 119.914C834.904 114.026 834.784 107.458 834.664 100.211C834.664 92.8133 834.664 84.5095 834.664 75.2999C834.784 65.9393 834.904 55.1445 835.024 42.9153C834.784 40.3487 834.844 37.7821 835.204 35.2155C835.684 32.4979 836.284 30.0067 837.004 27.7421C838.084 23.8167 839.404 20.1932 840.964 16.8717C842.644 13.5502 844.624 10.6062 846.904 8.03955C848.224 6.83173 849.664 5.85037 851.224 5.09549C852.784 4.18962 854.404 3.43474 856.084 2.83083C861.604 0.566161 867.064 -0.339699 872.464 0.113233C877.864 0.566161 882.904 2.15142 887.584 4.86902C892.384 7.43564 896.704 10.9081 900.544 15.2865C904.384 19.6648 907.444 24.7225 909.724 30.4597C912.004 36.0458 913.384 42.1604 913.864 48.8034C914.344 55.4464 913.624 62.2404 911.704 69.1853C907.264 70.3932 902.884 70.8461 898.564 70.5441C894.364 70.0912 889.984 69.3363 885.424 68.2795C885.064 65.4109 884.824 62.1649 884.704 58.5415C884.704 54.918 884.404 51.5965 883.804 48.5769C883.204 45.4064 882.064 42.8398 880.384 40.8771C878.824 38.9144 876.304 38.0085 872.824 38.1595C871.264 38.4615 869.584 38.8389 867.784 39.2918ZM976.555 133.502C984.235 133.955 992.155 134.03 1000.32 133.728V134.181C1000.56 139.012 1000.62 144.07 1000.5 149.354C1000.38 154.488 999.835 159.319 998.875 163.848C986.635 163.697 974.155 163.924 961.435 164.528C948.835 164.98 936.715 164.603 925.075 163.395C925.075 150.26 924.955 137.276 924.715 124.443C924.475 111.459 924.295 98.5504 924.175 85.7174C924.055 72.8843 924.055 60.0512 924.175 47.2182C924.295 34.3851 924.655 21.4765 925.255 8.49248C929.935 8.19052 934.975 7.96406 940.375 7.81308C945.895 7.51112 951.415 7.28466 956.935 7.13368C962.455 6.9827 967.795 6.83173 972.955 6.68075C978.115 6.52977 982.675 6.45428 986.635 6.45428C990.595 6.45428 993.775 6.52977 996.175 6.68075C998.575 6.83173 999.775 6.9827 999.775 7.13368C1000.38 12.4179 1000.5 17.7776 1000.14 23.2128C999.895 28.6479 999.775 34.0076 999.775 39.2918V39.5183C995.935 40.5752 992.035 41.2546 988.075 41.5565C984.235 41.7075 980.335 41.783 976.375 41.783C972.415 41.632 968.455 41.5565 964.495 41.5565C960.535 41.5565 956.575 41.783 952.615 42.2359H952.075L951.895 42.4624C952.015 46.8407 951.835 51.37 951.355 56.0503C950.995 60.5796 951.235 64.8825 952.075 68.9589L952.255 69.1853C955.855 69.4873 959.515 69.6383 963.235 69.6383C966.955 69.6383 970.675 69.7138 974.395 69.8647V70.0912C974.995 75.2244 975.175 80.3577 974.935 85.4909C974.695 90.6241 974.635 95.9838 974.755 101.57C972.955 102.174 970.915 102.551 968.635 102.702C966.355 102.702 964.135 102.702 961.975 102.702C959.935 102.702 958.075 102.778 956.395 102.929C954.715 103.08 953.575 103.457 952.975 104.061C952.375 108.439 952.135 113.346 952.255 118.781C952.495 124.217 952.735 128.746 952.975 132.369L953.155 132.596C961.075 132.596 968.875 132.898 976.555 133.502Z" fill="#FFA800" fill-opacity="0.74"/>
</svg>
