<svg width="310" height="216" viewBox="0 0 310 216" fill="none" xmlns="http://www.w3.org/2000/svg">
<path d="M45.6 94H5.28V19.48H46.8L45.6 37.84H25.8V49H42.96V64.84H25.8V77.2H46.8L45.6 94ZM125.916 94H107.076V55.12H105.996L98.9156 94H79.5956L72.8756 55.12H71.6756V94H53.0756L55.5956 19.48H82.5956L89.3156 59.8H90.2756L96.7556 19.48H123.396L125.916 94ZM140.15 27.28C144.79 21.28 152.35 18.28 162.83 18.28C173.31 18.28 180.79 21.24 185.27 27.16C189.83 33.08 192.11 42.72 192.11 56.08C192.11 69.36 189.79 79.2 185.15 85.6C180.51 92 172.99 95.2 162.59 95.2C152.19 95.2 144.71 92.04 140.15 85.72C135.59 79.4 133.31 69.6 133.31 56.32C133.31 42.96 135.59 33.28 140.15 27.28ZM171.47 56.08C171.47 48.72 170.87 43.76 169.67 41.2C168.55 38.56 166.19 37.24 162.59 37.24C159.07 37.24 156.79 38.56 155.75 41.2C154.71 43.76 154.19 48.68 154.19 55.96V58.84C154.19 66.6 154.75 71.72 155.87 74.2C157.07 76.6 159.43 77.8 162.95 77.8C166.55 77.8 168.87 76.64 169.91 74.32C170.95 72 171.47 67.2 171.47 59.92V56.08ZM251.28 43.12C251.28 47.6 250.6 51.32 249.24 54.28C247.88 57.24 245.76 59.92 242.88 62.32L252.84 94H230.64L223.2 67.12H220.44V94H200.28V19.48H228.12C236.12 19.48 241.96 21.36 245.64 25.12C249.4 28.88 251.28 34.88 251.28 43.12ZM223.56 54.52C225.64 54.52 227.12 53.92 228 52.72C228.88 51.52 229.32 49.36 229.32 46.24C229.32 43.04 228.88 40.84 228 39.64C227.12 38.36 225.68 37.72 223.68 37.72H220.44V54.52H223.56ZM309.977 19.48L292.217 70.96V94H271.817V70.96L254.297 19.48H276.857L282.257 43.72H283.217L288.377 19.48H309.977ZM29.28 139.48V199C29.28 205.16 27.88 209.4 25.08 211.72C22.28 214.04 17.12 215.2 9.6 215.2H3.48L1.92 198.88H6C7.36 198.88 8.2 198.72 8.52 198.4C8.92 198 9.12 197.2 9.12 196V139.48H29.28ZM60.8503 189.52C60.8503 192 61.3703 193.84 62.4103 195.04C63.4503 196.24 65.1303 196.84 67.4503 196.84C69.8503 196.84 71.4903 196.28 72.3703 195.16C73.3303 193.96 73.8103 192.04 73.8103 189.4V139.48H94.4503V190.6C94.4503 199.16 92.0903 205.4 87.3703 209.32C82.7303 213.24 75.8503 215.2 66.7303 215.2C57.6903 215.2 50.9303 213.28 46.4503 209.44C42.0503 205.52 39.8503 199.32 39.8503 190.84V139.48H60.8503V189.52ZM126.607 214H106.207V139.48H126.607V214ZM156.885 177.52C156.885 184.56 157.565 189.6 158.925 192.64C160.365 195.6 162.685 197.08 165.885 197.08C169.085 197.08 173.605 196.32 179.445 194.8L182.565 211.72C176.245 214.04 169.885 215.2 163.485 215.2C153.885 215.2 146.885 212.04 142.485 205.72C138.165 199.32 136.005 189.84 136.005 177.28C136.005 164.64 138.285 155 142.845 148.36C147.405 141.64 154.845 138.28 165.165 138.28C171.245 138.28 177.045 139.56 182.565 142.12L179.325 160.72C173.085 158.64 168.725 157.6 166.245 157.6C162.725 157.6 160.285 159.16 158.925 162.28C157.565 165.32 156.885 170.4 156.885 177.52ZM227.944 214H187.624V139.48H229.144L227.944 157.84H208.144V169H225.304V184.84H208.144V197.2H229.144L227.944 214Z" fill="black"/>
</svg>
