<svg width="567" height="96" viewBox="0 0 567 96" fill="none" xmlns="http://www.w3.org/2000/svg">
<path d="M45.6 94H5.28V19.48H46.8L45.6 37.84H25.8V49H42.96V64.84H25.8V77.2H46.8L45.6 94ZM125.916 94H107.076V55.12H105.996L98.9156 94H79.5956L72.8756 55.12H71.6756V94H53.0756L55.5956 19.48H82.5956L89.3156 59.8H90.2756L96.7556 19.48H123.396L125.916 94ZM140.15 27.28C144.79 21.28 152.35 18.28 162.83 18.28C173.31 18.28 180.79 21.24 185.27 27.16C189.83 33.08 192.11 42.72 192.11 56.08C192.11 69.36 189.79 79.2 185.15 85.6C180.51 92 172.99 95.2 162.59 95.2C152.19 95.2 144.71 92.04 140.15 85.72C135.59 79.4 133.31 69.6 133.31 56.32C133.31 42.96 135.59 33.28 140.15 27.28ZM171.47 56.08C171.47 48.72 170.87 43.76 169.67 41.2C168.55 38.56 166.19 37.24 162.59 37.24C159.07 37.24 156.79 38.56 155.75 41.2C154.71 43.76 154.19 48.68 154.19 55.96V58.84C154.19 66.6 154.75 71.72 155.87 74.2C157.07 76.6 159.43 77.8 162.95 77.8C166.55 77.8 168.87 76.64 169.91 74.32C170.95 72 171.47 67.2 171.47 59.92V56.08ZM251.28 43.12C251.28 47.6 250.6 51.32 249.24 54.28C247.88 57.24 245.76 59.92 242.88 62.32L252.84 94H230.64L223.2 67.12H220.44V94H200.28V19.48H228.12C236.12 19.48 241.96 21.36 245.64 25.12C249.4 28.88 251.28 34.88 251.28 43.12ZM223.56 54.52C225.64 54.52 227.12 53.92 228 52.72C228.88 51.52 229.32 49.36 229.32 46.24C229.32 43.04 228.88 40.84 228 39.64C227.12 38.36 225.68 37.72 223.68 37.72H220.44V54.52H223.56ZM309.977 19.48L292.217 70.96V94H271.817V70.96L254.297 19.48H276.857L282.257 43.72H283.217L288.377 19.48H309.977ZM364.436 19.48V79C364.436 85.16 363.036 89.4 360.236 91.72C357.436 94.04 352.276 95.2 344.756 95.2H338.636L337.076 78.88H341.156C342.516 78.88 343.356 78.72 343.676 78.4C344.076 78 344.276 77.2 344.276 76V19.48H364.436ZM396.007 69.52C396.007 72 396.527 73.84 397.567 75.04C398.607 76.24 400.287 76.84 402.607 76.84C405.007 76.84 406.647 76.28 407.527 75.16C408.487 73.96 408.967 72.04 408.967 69.4V19.48H429.607V70.6C429.607 79.16 427.247 85.4 422.527 89.32C417.887 93.24 411.007 95.2 401.887 95.2C392.847 95.2 386.087 93.28 381.607 89.44C377.207 85.52 375.007 79.32 375.007 70.84V19.48H396.007V69.52ZM461.763 94H441.363V19.48H461.763V94ZM492.041 57.52C492.041 64.56 492.721 69.6 494.081 72.64C495.521 75.6 497.841 77.08 501.041 77.08C504.241 77.08 508.761 76.32 514.601 74.8L517.721 91.72C511.401 94.04 505.041 95.2 498.641 95.2C489.041 95.2 482.041 92.04 477.641 85.72C473.321 79.32 471.161 69.84 471.161 57.28C471.161 44.64 473.441 35 478.001 28.36C482.561 21.64 490.001 18.28 500.321 18.28C506.401 18.28 512.201 19.56 517.721 22.12L514.481 40.72C508.241 38.64 503.881 37.6 501.401 37.6C497.881 37.6 495.441 39.16 494.081 42.28C492.721 45.32 492.041 50.4 492.041 57.52ZM563.1 94H522.78V19.48H564.3L563.1 37.84H543.3V49H560.46V64.84H543.3V77.2H564.3L563.1 94Z" fill="black"/>
</svg>
